<svg fill="none" xmlns="http://www.w3.org/2000/svg" viewBox="0 0 26 22"><path fill-rule="evenodd" clip-rule="evenodd" d="M.63 22h17.113a.46.46 0 0 0 .398-.23l1.835-3.174a.073.073 0 0 1 .127 0l1.835 3.175a.458.458 0 0 0 .397.228h2.86a.38.38 0 0 0 .33-.569l-5.157-8.92a.38.38 0 0 0-.658 0l-3.547 6.135a.163.163 0 0 1-.142.082H5.775a.073.073 0 0 1-.063-.11l7.135-12.343a.074.074 0 0 1 .127 0l1.555 2.691a.16.16 0 0 1 0 .164l-3.57 6.174a.38.38 0 0 0 .33.57h2.86a.459.459 0 0 0 .398-.23l1.921-3.324 1.764-3.036a.458.458 0 0 0 0-.458L13.24.19a.38.38 0 0 0-.659 0L.302 21.43a.38.38 0 0 0 .33.57Z" fill="#0D5BFF"/></svg>